<mxfile host="app.diagrams.net" modified="2024-07-22T09:30:14.098Z" agent="Mozilla/5.0 (Windows NT 10.0; Win64; x64) AppleWebKit/537.36 (KHTML, like Gecko) Chrome/126.0.0.0 Safari/537.36" etag="OZYXZ7vj6a6QAcQXj3Uh" version="24.6.4" type="device">
  <diagram name="第 1 页" id="Gq_b4wYUhcRCaMI2V4WU">
    <mxGraphModel dx="1221" dy="618" grid="1" gridSize="10" guides="1" tooltips="1" connect="1" arrows="1" fold="1" page="1" pageScale="1" pageWidth="827" pageHeight="1169" math="0" shadow="0">
      <root>
        <mxCell id="0" />
        <mxCell id="1" parent="0" />
        <mxCell id="WkIeXl-9-3-93o3Da9Hd-3" value="" style="edgeStyle=orthogonalEdgeStyle;rounded=0;orthogonalLoop=1;jettySize=auto;html=1;" edge="1" parent="1" source="WkIeXl-9-3-93o3Da9Hd-1" target="WkIeXl-9-3-93o3Da9Hd-2">
          <mxGeometry relative="1" as="geometry" />
        </mxCell>
        <mxCell id="WkIeXl-9-3-93o3Da9Hd-1" value="Actor" style="shape=umlActor;verticalLabelPosition=bottom;verticalAlign=top;html=1;outlineConnect=0;" vertex="1" parent="1">
          <mxGeometry x="30" y="110" width="30" height="60" as="geometry" />
        </mxCell>
        <mxCell id="WkIeXl-9-3-93o3Da9Hd-5" value="" style="edgeStyle=orthogonalEdgeStyle;rounded=0;orthogonalLoop=1;jettySize=auto;html=1;" edge="1" parent="1" source="WkIeXl-9-3-93o3Da9Hd-2" target="WkIeXl-9-3-93o3Da9Hd-4">
          <mxGeometry relative="1" as="geometry" />
        </mxCell>
        <mxCell id="WkIeXl-9-3-93o3Da9Hd-2" value="点击详情" style="rounded=0;whiteSpace=wrap;html=1;" vertex="1" parent="1">
          <mxGeometry x="130" y="110" width="120" height="60" as="geometry" />
        </mxCell>
        <mxCell id="WkIeXl-9-3-93o3Da9Hd-7" value="" style="edgeStyle=orthogonalEdgeStyle;rounded=0;orthogonalLoop=1;jettySize=auto;html=1;" edge="1" parent="1" source="WkIeXl-9-3-93o3Da9Hd-4" target="WkIeXl-9-3-93o3Da9Hd-6">
          <mxGeometry relative="1" as="geometry" />
        </mxCell>
        <mxCell id="WkIeXl-9-3-93o3Da9Hd-4" value="向浏览器发送请求" style="rounded=0;whiteSpace=wrap;html=1;" vertex="1" parent="1">
          <mxGeometry x="360" y="110" width="120" height="60" as="geometry" />
        </mxCell>
        <mxCell id="WkIeXl-9-3-93o3Da9Hd-9" value="" style="edgeStyle=orthogonalEdgeStyle;rounded=0;orthogonalLoop=1;jettySize=auto;html=1;" edge="1" parent="1" source="WkIeXl-9-3-93o3Da9Hd-6" target="WkIeXl-9-3-93o3Da9Hd-8">
          <mxGeometry relative="1" as="geometry" />
        </mxCell>
        <mxCell id="WkIeXl-9-3-93o3Da9Hd-6" value="生成接口数据" style="whiteSpace=wrap;html=1;rounded=0;" vertex="1" parent="1">
          <mxGeometry x="560" y="110" width="120" height="60" as="geometry" />
        </mxCell>
        <mxCell id="WkIeXl-9-3-93o3Da9Hd-8" value="&lt;div style=&quot;background-color:#2b2b2b;color:#a9b7c6;font-family:&#39;JetBrains Mono&#39;,monospace;font-size:10.5pt;white-space:pre;&quot;&gt;&lt;span style=&quot;color:#6a8759;&quot;&gt;searchForHitList&lt;/span&gt;&lt;/div&gt;" style="whiteSpace=wrap;html=1;rounded=0;" vertex="1" parent="1">
          <mxGeometry x="560" y="250" width="120" height="250" as="geometry" />
        </mxCell>
      </root>
    </mxGraphModel>
  </diagram>
</mxfile>
